<svg width="80" height="80" viewBox="0 0 80 80" fill="none" xmlns="http://www.w3.org/2000/svg">
<g id="Group">
<path id="Vector" d="M19.4233 45.3955C19.6662 43.841 19.7876 42.3791 20.1432 40.9792C20.576 39.2855 21.181 37.6316 21.7772 35.9843C21.9031 35.6354 22.2762 35.2048 22.5986 35.143C23.0469 35.0568 23.6453 35.1518 24.0141 35.4079C24.5374 35.7701 24.5529 36.406 24.2305 36.9735C22.899 39.3076 22.5986 41.911 22.2586 44.5034C22.2453 44.6094 22.2586 44.7198 22.2586 44.7728C23.8286 44.1611 25.3964 43.5517 27.0481 42.9091C27.0856 40.4713 27.4721 37.9562 28.3288 35.5183C29.4727 32.2679 31.2525 29.4216 33.7102 27.0125C34.1385 26.5929 34.1938 26.2661 33.9464 25.7361C32.5465 22.7419 30.4664 20.2687 28.1036 18.0053C27.9248 17.8331 27.7349 17.6741 27.556 17.5019C27.1254 17.0845 26.9267 16.5965 27.1629 16.0091C27.408 15.3997 27.8872 15.1457 28.532 15.1502C31.6477 15.1789 34.6685 15.6713 37.5215 16.9852C37.6893 17.0624 37.8615 17.1331 38.2745 17.312C37.9984 16.877 37.8748 16.6164 37.6915 16.4044C36.1634 14.6379 34.6442 12.8647 33.0808 11.1291C32.6149 10.6124 32.16 10.1531 32.4515 9.40229C32.754 8.62059 33.4054 8.51902 34.1474 8.53668C37.0931 8.60955 39.9527 9.07548 42.6555 10.3098C42.7747 10.365 42.9072 10.3915 42.9867 10.4158C43.3687 9.06885 43.6646 7.71966 44.1372 6.43671C45.0094 4.07396 46.4403 2.13298 48.7015 0.880946C49.2955 0.551928 49.8232 0.554136 50.4106 0.880946C52.6938 2.15285 54.1269 4.12696 54.9948 6.52283C55.4518 7.7837 55.7411 9.10418 56.1209 10.4468C58.3931 9.39124 60.8354 8.79945 63.3792 8.61838C63.9003 8.58084 64.4236 8.57201 64.947 8.53668C65.6845 8.4881 66.3403 8.61176 66.6473 9.39124C66.9586 10.184 66.4419 10.6455 65.965 11.1777C64.406 12.9155 62.889 14.6909 61.3653 16.4618C61.1975 16.6561 61.0981 16.9057 61.0606 16.9697C63.0215 16.4596 65.0397 15.8678 67.0889 15.4262C68.1555 15.1965 69.2772 15.2319 70.3769 15.148C71.068 15.0972 71.64 15.2871 71.927 15.976C72.2185 16.6782 71.8917 17.1861 71.3882 17.6476C69.2419 19.6085 67.3384 21.7747 65.8921 24.3141C64.7836 26.2595 64.7968 26.2529 66.241 27.8737C69.9816 32.0714 71.916 36.9912 72.0264 42.6088C72.075 45.0599 72.0374 47.5131 72.0396 49.9642C72.0396 50.2314 72.0396 50.5008 72.0396 50.8519C74.091 50.8519 76.0673 50.8519 78.0415 50.8519C79.6115 50.8519 80.0222 51.2472 79.9604 52.8039C79.744 58.1102 77.8008 62.8025 74.5349 66.8987C67.6145 75.579 58.5654 80.0108 47.4229 79.9225C42.9094 79.8872 38.5902 78.803 34.4963 76.8929C33.9774 76.6522 33.7057 76.7295 33.2906 77.0872C30.0181 79.9048 26.326 80.7285 22.2233 79.2181C21.1302 78.8162 20.1564 78.6064 18.9905 79.0989C13.6025 81.3711 8.03353 78.9222 5.25344 74.2409C3.12697 70.6614 1.9721 66.753 1.43772 62.6413C1.21028 60.8947 0.856968 59.1613 0.706812 57.4102C0.296092 52.6317 1.54592 48.4362 5.4036 45.3293C9.08462 42.3637 14.2606 42.1694 18.2242 44.7286C18.5842 44.9605 18.9772 45.1438 19.4255 45.3889L19.4233 45.3955ZM21.7706 50.8166C22.433 50.4721 22.9784 50.2336 23.4753 49.9178C24.2746 49.41 24.968 49.4343 25.4538 50.0548C25.9374 50.6753 25.8049 51.4216 25.1071 52.0068C22.7289 53.9986 18.1359 53.9941 15.7776 51.9979C15.0931 51.4194 14.9672 50.6488 15.453 50.0371C15.9233 49.4431 16.6255 49.4056 17.3675 49.8715C17.8908 50.2005 18.4539 50.4655 19.1097 50.8166C19.176 49.7986 19.229 48.9573 19.2775 48.1888C18.4252 47.7715 17.5993 47.4557 16.8662 46.9898C13.4458 44.8125 9.11333 45.2211 6.25595 48.1005C3.72318 50.6532 2.9989 53.8241 3.34779 57.2954C3.48469 58.6622 3.75188 60.0158 3.92191 61.3805C4.40329 65.2315 5.31306 68.9501 7.22313 72.3706C8.70261 75.0182 10.8357 76.767 13.9006 77.2418C15.5722 77.5001 17.129 77.0651 18.6416 76.4402C19.8539 75.9368 21.0132 75.9677 22.2475 76.4203C23.3229 76.8134 24.4579 77.2131 25.5819 77.2661C29.0796 77.4295 31.6853 75.7557 33.39 72.8056C34.3174 71.2002 35.1698 69.469 35.618 67.6848C36.413 64.5205 36.9253 61.2811 37.4574 58.0572C37.9918 54.8134 37.506 51.7396 35.4855 49.0412C33.3613 46.2037 29.7575 44.9185 26.4784 45.963C24.9768 46.4422 23.5769 47.246 22.1416 47.9217C22.0311 47.9724 21.9428 48.1756 21.9318 48.3147C21.8677 49.0787 21.8302 49.845 21.7728 50.8144L21.7706 50.8166ZM38.0382 69.745C45.4002 73.0286 52.8374 72.9049 60.0493 68.8662C66.0952 65.481 70.2422 60.5215 71.8299 53.5525H40.0984C40.6085 56.3171 40.0277 58.9714 39.5972 61.6234C39.1621 64.3019 38.5792 66.9539 38.036 69.745H38.0382ZM74.5503 53.5437C72.7683 62.0186 67.7249 67.9829 60.1464 71.8053C52.4818 75.6718 44.634 75.5746 36.8104 72.1122C36.371 72.9447 35.978 73.6888 35.5628 74.4727C35.8543 74.6074 36.0994 74.7289 36.3489 74.8349C42.7019 77.5156 49.2402 78.1251 55.8957 76.2901C64.4259 73.9361 70.9488 68.9346 75.1112 61.0448C76.3367 58.7218 77.0699 56.2288 77.2465 53.5459H74.5481L74.5503 53.5437ZM49.5472 15.8656C50.7352 14.6975 52.0027 13.4565 53.2569 12.2022C53.3762 12.083 53.4888 11.8688 53.4711 11.7142C53.1863 9.14614 52.6651 6.63765 50.8721 4.64588C49.5207 3.14653 49.5737 3.16861 48.2554 4.61938C46.4513 6.60232 45.9214 9.11081 45.6409 11.6789C45.6211 11.871 45.7933 12.1294 45.9479 12.2862C47.1601 13.5117 48.3901 14.7174 49.5472 15.8656ZM57.0771 42.569C58.9474 40.5508 60.6963 38.665 62.2508 36.989C60.6455 35.2291 58.9209 33.3411 57.0748 31.3206C55.2023 33.3543 53.4601 35.249 51.9276 36.9117C53.5241 38.665 55.2421 40.5552 57.0748 42.569H57.0771ZM49.6907 49.7699C51.5125 47.8201 53.2525 45.9586 54.7408 44.3643C53.0935 42.5624 51.3711 40.6811 49.5141 38.6517C47.7034 40.6457 45.9876 42.5337 44.2233 44.4791C45.8617 46.0668 47.6923 47.8377 49.6907 49.7699ZM42.0261 42.6132C43.9384 40.5331 45.6652 38.6562 47.1292 37.0641C45.5548 35.324 43.8302 33.4206 41.9842 31.3824C40.1514 33.3742 38.4246 35.249 36.8745 36.9338C38.4622 38.6849 40.1624 40.5574 42.0261 42.6154V42.6132ZM44.5148 29.5717C46.087 31.3029 47.8116 33.1998 49.6598 35.2357C51.5058 33.2572 53.2459 31.3957 54.732 29.8036C53.0913 27.9995 51.38 26.1159 49.5538 24.1065C47.7188 26.0983 45.992 27.9708 44.517 29.5717H44.5148ZM64.47 49.7765C66.1549 48.1469 67.6586 46.6983 69.1469 45.2343C69.2838 45.0996 69.3567 44.8633 69.3876 44.6624C69.498 43.9182 69.3125 43.3265 68.7031 42.7788C67.2987 41.518 65.9738 40.1643 64.4943 38.729C62.6946 40.6678 60.9657 42.5359 59.4045 44.2186C60.9966 45.9652 62.7013 47.8333 64.4744 49.7765H64.47ZM48.6661 20.3239C47.1314 15.806 42.5826 12.1095 37.2896 11.5553C39.8136 14.5098 41.9665 17.5968 42.6952 21.3684C44.729 21.0129 46.6721 20.6728 48.6661 20.3239ZM61.8025 11.5663C61.6325 11.5464 61.5508 11.5155 61.4779 11.5288C57.0704 12.3237 53.5771 14.4789 51.3115 18.4227C51.1614 18.6832 51.168 19.0829 51.2166 19.4009C51.3468 20.2621 51.8326 20.6264 52.7623 20.7059C53.9768 20.8119 55.1692 21.1741 56.4102 21.4324C57.1433 17.5593 59.3073 14.4987 61.8025 11.5663ZM34.5139 38.7644C33.1405 40.2527 31.8045 41.7012 30.5017 43.1101C33.0941 43.5539 35.3862 44.87 37.2521 46.9898C38.1641 45.9873 39.0429 45.0201 39.9483 44.0242C38.2678 42.399 36.4351 40.6259 34.5117 38.7644H34.5139ZM39.7363 29.6645C39.0981 28.9468 38.3186 28.0702 37.5237 27.1715C35.4193 28.7967 33.7168 30.7023 32.5089 32.8089C33.2398 33.6171 33.8979 34.3458 34.6818 35.2136C36.4373 33.2859 38.1596 31.3957 39.7363 29.6645ZM64.5053 35.2048C65.3467 34.3546 66.018 33.6767 66.7047 32.9812C65.3732 30.7023 63.6861 28.7768 61.5508 27.1516C60.7205 28.0371 59.919 28.8872 59.3228 29.5232C61.001 31.3626 62.7234 33.2506 64.5053 35.2048ZM61.4183 50.8188C60.0978 49.3437 58.6272 47.7008 57.0483 45.9409C55.4607 47.6832 53.9878 49.2996 52.6011 50.8188H61.4183ZM32.1689 18.1113C33.6395 20.2864 35.0814 22.4173 36.5101 24.5305C37.5171 23.963 38.6366 23.3226 39.765 22.6977C40.37 22.3621 40.1691 21.9999 39.8025 21.6621C37.6253 19.6637 35.0218 18.5905 32.1689 18.1113ZM62.5887 24.5305C64.0262 22.4062 65.4747 20.2665 66.994 18.023C65.9075 18.3321 64.8675 18.5817 63.8606 18.9283C62.1757 19.5047 60.6653 20.4012 59.3537 21.6113C59.0225 21.9182 58.6515 22.2804 59.2764 22.6491C60.4114 23.316 61.5663 23.9519 62.5909 24.5327L62.5887 24.5305ZM38.8707 49.4497C39.2431 50.3904 39.9718 50.8607 41.0568 50.8607H46.4977C45.1132 49.3172 43.6381 47.6721 42.1123 45.9696C40.9773 47.1885 39.9681 48.2728 38.8707 49.4497ZM42.0858 27.9222C43.5719 26.3059 44.9564 24.7999 46.2548 23.3866C44.1283 23.6737 41.9665 24.4642 39.9703 25.5661C40.6438 26.3169 41.3019 27.0478 42.0858 27.9222ZM53.1112 23.4198C54.3124 24.7425 55.6903 26.2573 57.0638 27.7677C57.7947 27.0103 58.4726 26.3081 59.1704 25.5838C57.1566 24.4731 55.0102 23.6892 53.109 23.4176L53.1112 23.4198ZM32.478 36.7947C32.1291 36.4657 31.6676 36.0306 31.0824 35.4808C30.685 36.8675 30.3361 38.0887 29.9872 39.3076L30.1197 39.3606C30.8749 38.5391 31.6301 37.7155 32.4758 36.7969L32.478 36.7947ZM68.9592 39.323C69.0078 39.3009 69.0564 39.2789 69.105 39.2546C68.7517 38.0489 68.4006 36.8433 67.9987 35.4676C67.4466 36.0947 67.0381 36.5562 66.7687 36.8653C67.482 37.6647 68.2217 38.4928 68.9614 39.323H68.9592ZM67.3981 50.8144H69.3324V48.6989C68.617 49.4828 68.0163 50.1365 67.3981 50.8144Z" fill="#DF6769"/>
<path id="Vector_2" d="M66.7401 57.5074C66.7202 58.2228 66.1019 58.8102 65.3887 58.7904C64.671 58.7705 64.088 58.1544 64.1079 57.4389C64.1278 56.7191 64.7395 56.1383 65.4571 56.1582C66.1748 56.1781 66.7577 56.792 66.7379 57.5074H66.7401Z" fill="#DF6769"/>
<path id="Vector_3" d="M45.5747 60.0844C45.5923 60.7976 45.005 61.4137 44.2895 61.4336C43.5741 61.4512 42.9602 60.8661 42.9425 60.1484C42.9249 59.4307 43.5056 58.8191 44.2255 58.8014C44.9409 58.7838 45.5548 59.3667 45.5747 60.0844Z" fill="#DF6769"/>
<path id="Vector_4" d="M52.1859 61.4334C51.4683 61.429 50.8743 60.8262 50.8787 60.1085C50.8831 59.3887 51.4837 58.7969 52.2036 58.8013C52.9212 58.8057 53.5175 59.4085 53.5108 60.1262C53.5064 60.8416 52.9014 61.4401 52.1859 61.4334Z" fill="#DF6769"/>
<path id="Vector_5" d="M57.4945 64.0214C57.5298 63.3038 58.1591 62.7341 58.8724 62.7694C59.5878 62.8047 60.162 63.4362 60.1244 64.1473C60.0891 64.8605 59.4553 65.4369 58.7443 65.4015C58.0289 65.3662 57.4569 64.7347 57.4923 64.0214H57.4945Z" fill="#DF6769"/>
<path id="Vector_6" d="M48.24 69.3695C47.5246 69.3784 46.9195 68.7844 46.9107 68.0667C46.9041 67.3469 47.4915 66.7462 48.2135 66.7374C48.9312 66.7286 49.5362 67.3226 49.5428 68.0402C49.5517 68.7557 48.9555 69.3629 48.24 69.3695Z" fill="#DF6769"/>
</g>
</svg>
