<svg width="73" height="81" viewBox="0 0 73 81" fill="none" xmlns="http://www.w3.org/2000/svg">
<g id="Group 55">
<path id="Vector" d="M44.3883 0.0745144C47.2281 0.54677 49.7867 1.67598 52.0745 3.41178C53.6571 4.61236 54.1671 6.56436 53.38 8.31065C52.3684 10.5544 49.6733 11.3478 47.5492 10.0423C46.6824 9.50913 45.8155 8.96132 44.8962 8.53314C43.8803 8.06088 42.7679 7.76494 41.7751 8.56042C40.6543 9.45666 40.2135 10.6908 40.35 12.1181C40.3794 12.4287 40.4759 12.7331 40.5179 13.0437C40.7047 14.4164 40.9251 15.7849 41.0447 17.1618C41.0909 17.7012 41.221 17.9048 41.7793 18.0076C46.3906 18.8472 50.6053 20.6019 54.1776 23.6894C55.3761 24.7263 56.4151 25.9457 57.4204 26.9742C59.0849 26.5187 60.7178 25.9856 62.3907 25.633C64.2293 25.2468 65.623 26.0402 66.3807 27.7613C67.1279 29.4572 67.193 31.2644 67.1006 33.0778C66.8907 37.1518 66.0008 41.102 64.8485 44.9976C64.6491 45.6713 64.6701 46.215 65.0479 46.8362C65.5621 47.6821 65.9148 48.6224 66.3933 49.4914C66.5045 49.6929 66.8425 49.8902 67.0713 49.8839C68.3264 49.8482 69.5774 49.7264 70.8325 49.6782C71.8442 49.6404 72.455 50.1336 72.4906 50.9417C72.5284 51.7645 71.9009 52.306 70.864 52.3543C69.7705 52.4046 68.6769 52.4613 67.7177 52.5075C67.9696 54.6337 68.2005 56.6738 68.4712 58.7077C68.4964 58.8903 68.7567 59.0939 68.9561 59.1925C69.8649 59.648 70.8136 60.0279 71.7057 60.5128C72.4949 60.9409 72.7026 61.6902 72.3248 62.3619C71.9281 63.0713 71.1767 63.2351 70.3603 62.8048C69.6991 62.4564 69.0316 62.1226 68.3768 61.7889C67.8961 63.4135 67.4449 64.9352 66.9705 66.5408C67.0692 66.6206 67.2476 66.7654 67.4302 66.9081C69.4115 68.4613 70.6415 70.4784 71.0487 72.9572C71.4307 75.2912 70.5051 77.1026 68.6161 78.4417C67.0629 79.5436 65.2767 80.0453 63.417 80.2782C60.2981 80.6686 57.2022 80.7169 54.2322 79.4345C54.0874 79.3715 53.9194 79.3421 53.8019 79.2477C52.5174 78.236 51.2014 78.4753 49.709 78.8468C40.2786 81.1913 30.8524 81.0989 21.4765 78.4774C20.9098 78.3178 20.4565 78.3409 19.9317 78.6537C17.073 80.358 13.9414 80.7064 10.6923 80.4419C8.64377 80.2761 6.6456 79.9361 4.80695 78.9517C1.94823 77.4195 0.907166 74.9617 1.8034 71.8427C2.40999 69.7312 3.43636 68.3102 5.62762 66.5429C5.17006 65.0023 4.7104 63.4638 4.21925 61.8141C3.62946 62.1058 2.99978 62.3913 2.3953 62.7229C1.45708 63.2371 0.718264 63.1322 0.283788 62.385C-0.135994 61.663 0.128469 60.9137 1.07508 60.4057C1.90205 59.9649 2.78569 59.6312 3.62316 59.2093C3.83725 59.1023 4.09962 58.8609 4.1269 58.6531C4.39976 56.6403 4.62854 54.6211 4.88251 52.5096C3.88972 52.4613 2.74372 52.4151 1.59771 52.348C0.441207 52.2787 -0.198962 51.3699 0.239711 50.438C0.506273 49.8713 0.982727 49.6446 1.58092 49.674C2.86126 49.7369 4.14369 49.7831 5.41773 49.9111C5.91518 49.9615 6.11457 49.8125 6.27829 49.3801C6.47978 48.8428 6.67708 48.2761 7.01501 47.8248C7.991 46.5277 7.89865 45.2327 7.45578 43.734C6.28249 39.7629 5.41773 35.712 5.55626 31.5372C5.59614 30.3283 5.80813 29.0794 6.20273 27.9397C6.85549 26.0507 8.32683 25.2951 10.2914 25.6288C11.1142 25.7694 11.9391 25.9373 12.7325 26.185C13.5279 26.4327 14.2856 26.7937 15.1462 27.14C19.6148 21.2966 25.8402 18.5974 33.1171 17.6256C32.9618 16.6203 32.8589 15.6401 32.6553 14.6788C31.5849 9.60148 32.9618 5.37007 36.998 2.06638C38.2385 1.05051 39.7203 0.534166 41.284 0.234021C41.4855 0.196241 41.6786 0.126983 41.878 0.0703125C42.7154 0.0703125 43.5529 0.0703125 44.3925 0.0703125L44.3883 0.0745144ZM50.0658 76.0573C48.9681 71.8007 50.8634 68.8455 54.016 66.5178C57.2189 64.1523 60.7871 63.8563 64.6323 65.2059C65.0122 63.7976 65.3669 62.4815 65.73 61.134C65.4467 61.0648 65.3501 61.0291 65.2494 61.0186C63.2491 60.8087 61.2489 60.5841 59.2444 60.4015C58.0459 60.2924 57.3155 59.2303 57.9746 58.3719C58.2411 58.0234 58.8498 57.7317 59.2885 57.7527C61.4231 57.8492 63.5514 58.057 65.8539 58.2417C65.5495 56.5248 65.241 54.7806 64.9283 53.0154C62.0926 53.5842 59.6621 54.5686 57.3974 55.977C56.4906 56.5416 55.714 56.4178 55.2733 55.6894C54.8514 54.9905 55.0885 54.2706 55.9596 53.727C56.6019 53.3261 57.2399 52.8895 57.9326 52.5999C59.8552 51.7981 61.8072 51.0655 63.82 50.2785C63.3604 49.4095 62.8923 48.3852 62.2962 47.4428C61.8009 46.6599 61.7589 45.9421 62.036 45.0731C63.2743 41.1734 64.2209 37.2043 64.3846 33.0988C64.4371 31.8101 64.2818 30.492 64.0488 29.2179C63.8704 28.2461 63.4548 28.0362 62.5061 28.2818C61.3979 28.5694 60.233 28.8254 59.2528 29.3775C56.2954 31.0419 53.3926 32.8113 50.5171 34.6163C49.6901 35.1348 49.0101 35.2481 48.1202 34.8262C45.4293 33.5501 42.5811 32.7756 39.6237 32.444C34.2757 31.8458 29.1418 32.6476 24.2513 34.9165C23.5691 35.2334 22.9794 35.1768 22.3434 34.7444C20.6559 33.5984 18.9683 32.4461 17.2178 31.4029C14.9762 30.068 12.7597 28.6449 10.0794 28.2923C9.09923 28.1622 8.75081 28.2608 8.56191 29.2578C8.33732 30.4542 8.20089 31.6926 8.24077 32.9078C8.3751 37.1497 9.38888 41.2363 10.6461 45.2662C10.8686 45.9757 10.7994 46.5655 10.4236 47.2014C9.80866 48.2446 9.26714 49.3297 8.66265 50.459C11.5948 51.1117 14.1996 52.1675 16.607 53.6955C17.5054 54.2643 17.751 55.0073 17.2913 55.723C16.8463 56.4136 16.1096 56.4996 15.2218 55.9938C14.4263 55.5404 13.6329 55.0808 12.8101 54.6862C11.2107 53.9201 9.5421 53.3534 7.64048 53.0238C7.33194 54.8268 7.036 56.5584 6.72536 58.374C7.09267 58.3194 7.24589 58.29 7.40121 58.2753C9.40567 58.0885 11.4059 57.8744 13.4125 57.7317C14.2374 57.6729 14.802 58.2312 14.8419 58.9743C14.8796 59.6984 14.3423 60.2966 13.5489 60.3805C13.211 60.4162 12.8668 60.3826 12.5289 60.4162C10.6902 60.5988 8.85156 60.7919 6.81141 61.0039C7.23539 62.5172 7.6069 63.8458 7.9931 65.229C10.2138 64.3916 12.2938 64.2089 14.4242 64.6455C18.4856 65.4746 22.06 68.814 22.7359 72.6004C22.9311 73.6939 22.7254 74.8588 22.7023 76.1035C31.7045 78.4186 40.8495 78.4249 50.0658 76.0594V76.0573ZM54.9899 28.435C46.3592 17.0883 25.3196 17.781 17.6355 28.4497C19.4091 29.5999 21.1932 30.7355 22.9521 31.9088C23.3635 32.1837 23.6762 32.2425 24.1547 32.0389C27.6515 30.5466 31.3057 29.7322 35.1111 29.5957C39.7833 29.4299 44.2707 30.2401 48.5756 32.0746C48.8023 32.1711 49.1675 32.2089 49.3522 32.0914C51.2286 30.9055 53.0799 29.6797 54.9899 28.4329V28.435ZM16.1915 77.3733C16.4769 77.2915 16.7288 77.2285 16.9744 77.1467C20.4292 75.9902 21.189 73.5407 19.004 70.6064C15.673 66.1357 9.29653 65.9259 5.6738 70.1699C2.92212 73.3938 3.85404 76.3092 7.95742 77.3125C8.02459 77.3293 8.10015 77.3125 8.13373 77.3125C8.13373 76.2084 8.12114 75.117 8.13793 74.0235C8.15472 73.0223 8.67105 72.4556 9.51272 72.4703C10.3313 72.4829 10.7931 73.016 10.8119 74.0004C10.8266 74.7854 10.7952 75.5704 10.8266 76.3533C10.8602 77.2285 11.4101 77.8015 12.1615 77.8057C12.9172 77.8099 13.4629 77.2432 13.4923 76.3638C13.5195 75.606 13.4923 74.8463 13.5049 74.0885C13.5237 73.0433 13.9771 72.4892 14.8104 72.4682C15.6751 72.4472 16.1747 73.0202 16.1894 74.0906C16.2041 75.159 16.1915 76.2273 16.1915 77.3671V77.3733ZM64.4581 77.3775C64.7981 77.2726 65.1486 77.176 65.4908 77.0543C68.5594 75.9545 69.3423 73.7506 67.5372 71.0325C65.9001 68.5684 63.5619 67.2188 60.5814 67.1117C56.9902 66.9816 53.2625 69.6703 52.5027 72.8859C52.1711 74.2921 52.5447 75.457 53.7599 76.2315C54.5596 76.7416 55.4768 77.0648 56.4046 77.5014C56.4046 76.2147 56.3878 75.096 56.4088 73.9794C56.4277 73.0139 56.9272 72.4766 57.7458 72.4766C58.5602 72.4766 59.0576 73.0181 59.087 73.9815C59.1101 74.7644 59.0786 75.5515 59.1017 76.3344C59.1269 77.2243 59.6432 77.7931 60.3967 77.812C61.1733 77.833 61.74 77.2369 61.7715 76.3176C61.7988 75.5599 61.7715 74.8001 61.782 74.0424C61.7988 73.0202 62.2794 72.4661 63.1232 72.4745C63.9565 72.4829 64.4455 73.0496 64.4581 74.0696C64.4728 75.138 64.4623 76.2063 64.4623 77.3796L64.4581 77.3775ZM38.4316 17.4787C38.3413 16.6412 38.2699 15.8416 38.1671 15.0461C37.9635 13.4761 37.4283 11.9565 37.762 10.3151C38.5428 6.4762 41.7332 4.5431 45.4021 5.87382C46.59 6.30409 47.6794 7.02192 48.7855 7.65579C49.581 8.11336 50.3534 8.04829 50.7984 7.39553C51.2223 6.77215 51.0964 5.93887 50.3492 5.4939C49.029 4.70891 47.6878 3.93862 46.2836 3.32783C44.9529 2.74853 43.5067 2.63099 42.048 2.8157C37.4933 3.3866 34.4226 8.2057 35.0313 12.7121C35.2433 14.2884 35.5623 15.85 35.8415 17.4787H38.4358H38.4316Z" fill="#3A93F8"/>
<path id="Vector_2" d="M36.2898 70.6908C34.741 72.1017 32.9165 72.7345 30.73 72.4086C28.1066 72.0176 26.0019 69.9003 25.8851 67.5117C25.857 66.9356 25.8524 66.3574 25.8804 65.7813C25.9178 65.0097 26.5065 64.4819 27.3031 64.4609C28.0996 64.4399 28.7444 64.9361 28.8285 65.6993C28.8822 66.1934 28.8378 66.6938 28.8565 67.1921C28.9126 68.6534 30.153 69.772 31.7532 69.8119C33.3651 69.8519 34.7363 68.7228 34.7924 67.2384C34.8414 65.9285 34.8227 64.6165 34.7924 63.3066C34.7877 63.1005 34.5985 62.8608 34.4233 62.6989C33.2272 61.6014 31.856 60.6237 30.8421 59.4063C29.4662 57.7537 30.994 55.2558 33.4328 55.1086C35.346 54.993 37.2802 55.0098 39.1958 55.1129C40.5741 55.1864 41.5879 55.9497 42.0738 57.1208C42.5246 58.2036 42.1929 59.2003 41.2842 60.0013C40.2096 60.9496 39.0837 61.8495 38.0021 62.7915C37.8666 62.9092 37.8012 63.1489 37.7988 63.3318C37.7825 64.6165 37.7638 65.9012 37.7988 67.1858C37.8432 68.6829 39.1631 69.8204 40.782 69.8141C42.4055 69.8077 43.688 68.6661 43.7417 67.169C43.7581 66.698 43.7207 66.2229 43.7627 65.754C43.8352 64.9487 44.4892 64.4294 45.3209 64.4651C46.1198 64.4987 46.7318 65.0244 46.7061 65.8087C46.6734 66.8221 46.7248 67.8881 46.3954 68.8343C45.1387 72.4528 40.1606 73.6744 36.9439 71.2228C36.7243 71.0567 36.5164 70.878 36.2898 70.6929V70.6908ZM33.4398 57.8525C33.4211 57.9282 33.4001 58.006 33.3814 58.0817C34.0939 58.7587 34.7573 59.4883 35.5469 60.0833C35.8389 60.3041 36.6075 60.3987 36.8504 60.2158C37.7194 59.5682 38.4576 58.7755 39.2472 58.0375C39.2075 57.9766 39.1654 57.9135 39.1257 57.8525H33.4398Z" fill="#3A93F8"/>
<path id="Vector_3" d="M21.3811 46.9507C24.8805 46.9738 27.7912 48.8872 28.7046 51.8076C28.9709 52.655 28.6345 53.3383 27.8239 53.6011C27.032 53.8576 26.2471 53.4834 25.899 52.6823C24.8174 50.195 22.9206 49.2593 19.9702 49.806C19.1502 49.9574 18.3513 50.2118 17.5454 50.4304C16.5759 50.6933 15.7793 50.3863 15.4897 49.6189C15.221 48.9082 15.6298 48.1996 16.5526 47.9074C17.4005 47.6403 18.2649 47.4027 19.1386 47.2282C19.8721 47.081 20.6313 47.039 21.3788 46.9528L21.3811 46.9507Z" fill="#3A93F8"/>
<path id="Vector_4" d="M49.8878 46.8056C51.4786 47.184 53.0858 47.5205 54.6556 47.9557C55.5223 48.1954 55.861 48.9397 55.5947 49.6546C55.3401 50.3379 54.5412 50.6659 53.6722 50.4683C52.4948 50.2012 51.3221 49.8312 50.1261 49.7239C47.6686 49.5032 46.0917 50.4893 45.2438 52.5771C44.884 53.4602 44.1528 53.8618 43.3165 53.6326C42.4615 53.3993 42.1111 52.6423 42.4288 51.7067C43.4123 48.7862 46.337 46.9254 49.8341 46.9927C49.8527 46.9296 49.8714 46.8665 49.8901 46.8035L49.8878 46.8056Z" fill="#3A93F8"/>
</g>
</svg>
