<svg width="82" height="82" viewBox="0 0 82 82" fill="none" xmlns="http://www.w3.org/2000/svg">
<g id="Group">
<path id="Vector" d="M63.8131 52.0685C64.7515 55.2911 65.0346 58.5376 64.6754 61.9649C64.9454 61.7341 65.1261 61.586 65.2981 61.4314C68.0112 59.0319 71.0922 58.3852 74.5347 59.5066C75.3338 59.7657 76.1068 60.1163 76.9146 60.3384C79.6974 61.107 81.1432 63.0972 81.5133 65.7776C82.2928 71.4171 80.5574 76.2509 76.2549 80.0157C74.2712 81.7511 71.9806 82.2367 69.3612 81.2176C64.8887 79.4779 60.3554 77.8992 55.8329 76.2967C55.4344 76.1551 54.8704 76.1965 54.4785 76.3707C45.7187 80.2443 36.9677 80.2487 28.221 76.3576C27.7093 76.129 27.2934 76.0811 26.7665 76.2771C22.3158 77.9188 17.8194 79.4496 13.408 81.1893C10.671 82.2693 8.29107 81.7946 6.23777 79.9264C1.84809 75.9352 0.0952623 70.9468 1.25365 65.0873C1.71526 62.7531 3.1393 61.1026 5.53228 60.4189C7.09132 59.9726 8.6046 59.2649 10.1919 59.0341C13.0052 58.6247 15.4918 59.5523 17.5582 61.5359C17.6692 61.6426 17.7824 61.745 18.0437 61.9888C17.6213 58.5137 17.9762 55.2824 18.8864 52.025C18.0829 51.7288 17.2795 51.4937 16.5261 51.1475C13.0052 49.534 9.49735 47.8879 5.983 46.2548C2.38808 44.5847 1.66083 40.8875 2.56446 37.7803C3.54865 34.3857 6.41631 31.8708 9.65848 31.5463C10.9475 31.4179 12.095 31.812 13.2447 32.3781C16.476 33.972 19.7421 35.4962 22.9974 37.0421C23.2369 37.1554 23.4982 37.2229 23.8095 37.2686C21.2053 34.1789 19.6028 30.671 19.2435 26.6515C18.8886 22.6777 19.594 18.8716 21.2489 15.2048C19.6507 14.0617 18.538 12.5984 18.0285 10.715C17.0595 7.13095 18.7035 3.42063 22.0175 1.70482C25.2836 0.0129642 29.2901 0.859978 31.6461 3.77119C31.9618 4.16095 32.173 4.30465 32.6978 4.08256C38.4636 1.63732 44.2424 1.65038 50.0148 4.08692C50.1868 4.15877 50.3632 4.21974 50.5265 4.28071C54.2586 -0.564048 59.9852 0.313446 62.7658 3.28127C65.6791 6.38845 65.9491 11.8385 61.4767 15.2005C64.5621 23.0588 64.5207 30.5469 58.7484 37.5212C59.1186 37.3905 59.3581 37.3296 59.5802 37.2251C62.7178 35.7488 65.9644 34.4597 68.9627 32.7374C72.5336 30.6863 75.7628 31.9426 77.7333 33.9328C79.9325 36.1538 80.9167 38.8189 80.3027 41.9544C79.9369 43.8205 78.8721 45.1879 77.2064 46.122C73.1738 48.3843 68.9757 50.2721 64.6078 51.7811C64.3553 51.8682 64.107 51.9618 63.8174 52.0663L63.8131 52.0685ZM61.9645 61.8059C61.9971 61.6383 62.0254 61.5338 62.0341 61.4271C62.7396 53.4403 59.9699 46.9146 53.7969 41.8107C53.3832 41.4688 53.074 41.4449 52.5776 41.6561C45.072 44.8351 37.5534 44.833 30.05 41.6496C29.5906 41.4558 29.2966 41.4536 28.896 41.7693C25.5907 44.3713 23.202 47.6418 21.7715 51.5895C20.5717 54.9013 20.1711 58.3134 20.6653 61.88C24.674 60.2752 28.2471 60.7542 30.8012 64.3339C33.229 67.7372 32.676 71.1797 30.0914 74.3544C32.3842 75.6217 38.2132 76.8584 40.0183 76.4491V75.4888C40.0183 67.3954 40.0183 59.3019 40.0183 51.2084C40.0183 50.9363 40.0008 50.6619 40.0313 50.3941C40.114 49.6842 40.6758 49.1726 41.3508 49.2118C42.0716 49.2553 42.494 49.669 42.6072 50.3723C42.6508 50.638 42.6246 50.9145 42.6246 51.1867C42.6246 59.3063 42.6246 67.428 42.6246 75.5476V76.5797C46.1455 76.4643 49.4356 75.7654 52.6342 74.3479C50.1084 71.2821 49.5118 67.9767 51.6544 64.6671C54.1497 60.813 57.8056 60.2034 61.9601 61.8038L61.9645 61.8059ZM51.4323 39.2544C51.5673 39.2043 51.7959 39.1412 52.0071 39.041C54.3021 37.948 56.2379 36.4042 57.7642 34.3661C60.7125 30.4228 61.3766 25.9896 60.5796 21.2341C58.7724 10.4755 48.0856 3.19418 37.4184 5.46523C28.7022 7.32039 22.4878 14.4231 21.8041 23.307C21.2859 30.0592 24.4998 35.9382 30.3287 38.8864C30.651 39.0497 30.995 39.1717 31.5176 39.3916C31.3086 39.028 31.2193 38.8668 31.1235 38.7101C28.835 34.9888 29.1203 30.7298 31.8899 27.3483C35.8833 22.4687 43.9354 21.6717 49.0393 25.7065C52.1051 28.13 53.5858 31.2959 52.8629 35.2218C52.6081 36.6023 51.9265 37.9044 51.4366 39.2566L51.4323 39.2544ZM41.782 25.7326C39.5457 25.737 37.8147 26.1877 36.3123 27.0282C31.829 29.5366 30.847 34.8713 34.2132 38.4444C37.9802 42.4422 45.0089 42.3355 48.6321 38.2223C50.877 35.6747 51.0817 32.1822 49.072 29.456C47.1536 26.854 44.4384 25.8263 41.782 25.7326ZM72.3246 61.6013C69.4896 61.5185 67.3557 62.5005 65.7728 64.654C65.1152 65.5467 64.7254 65.6774 63.6977 65.3072C62.474 64.8652 61.2677 64.3709 60.0244 63.9877C59.3363 63.7765 58.5851 63.6197 57.8753 63.6589C55.2689 63.8048 53.3767 65.6055 52.9935 68.1814C52.6451 70.5265 54.0082 72.8259 56.3532 73.7164C58.8616 74.6701 61.394 75.5607 63.9154 76.4774C64.7951 76.7975 65.6748 77.111 66.6307 77.4551C65.4462 71.0578 67.3079 65.8538 72.3246 61.6013ZM16.0165 77.4398C19.5418 76.1486 22.969 74.9619 26.3419 73.6337C29.0963 72.5493 30.3222 69.6163 29.2988 66.9381C28.2689 64.2447 25.3751 62.9491 22.5488 63.9333C21.3469 64.3513 20.158 64.8043 18.9604 65.2376C17.8303 65.6447 17.5103 65.5489 16.8222 64.5996C15.6529 62.9861 14.0852 61.9888 12.1255 61.6557C11.5724 61.5621 10.9889 61.6405 10.377 61.6405C15.2849 65.8407 17.1749 71.0338 16.0165 77.4355V77.4398ZM68.7863 74.7659C68.9562 75.3604 69.163 76.6037 69.6682 77.7076C70.3257 79.1426 71.6605 79.6238 73.0758 78.9422C74.0513 78.4719 75.0181 77.8056 75.7279 76.9956C78.11 74.2782 79.2553 71.0426 79.092 67.4259C79.0463 66.4308 78.7197 65.3922 78.2864 64.4864C77.6223 63.0993 76.3158 62.6072 74.9375 63.2779C73.9163 63.7743 72.9104 64.4798 72.1657 65.3268C69.973 67.8134 68.9605 70.8096 68.7885 74.7659H68.7863ZM14.0133 74.178C13.9589 74.1563 13.9066 74.1345 13.8522 74.1127C13.7738 73.4138 13.7455 72.7039 13.6061 72.0159C12.9899 68.9675 11.8098 66.1934 9.32315 64.1859C6.66017 62.0368 4.18009 62.9404 3.69017 66.3154C3.03259 70.8466 4.5372 74.705 7.80986 77.8644C8.28453 78.3217 8.91381 78.6613 9.53002 78.9183C11.0324 79.541 12.3367 79.1186 13.003 77.6445C13.4929 76.5601 13.6867 75.3408 14.0133 74.1802V74.178ZM10.8452 46.0523C13.9349 47.3 16.8091 48.4605 19.7334 49.6407C21.1727 46.2156 23.1955 43.3763 25.7757 40.9702C22.4399 39.6093 19.176 38.2767 15.8968 36.9376C16.145 40.9092 14.4945 43.888 10.8452 46.0523ZM71.8412 46.0523C68.1701 43.8771 66.5458 40.8592 66.7766 36.9333C63.4887 38.2811 60.2421 39.6115 56.9237 40.9724C59.5258 43.3915 61.529 46.2526 62.9748 49.6451C65.9078 48.4562 68.7645 47.3 71.8412 46.0523ZM77.8814 40.6763C77.8618 37.6235 75.9065 34.954 73.4786 34.3226C71.6409 33.8435 70.0209 34.7668 69.5049 36.5827C68.8516 38.8886 70.0949 41.9348 72.3028 43.3632C73.5026 44.1384 74.7895 44.5064 76.1308 43.7617C77.459 43.0235 77.8727 41.765 77.8792 40.6741L77.8814 40.6763ZM13.3383 38.0351C13.3187 36.5065 12.9834 35.2676 11.7053 34.5468C10.4184 33.8196 9.11632 34.0591 7.92745 34.8016C5.97865 36.0209 4.94002 37.8326 4.82244 40.1188C4.74623 41.6104 5.17299 42.9473 6.5992 43.6811C8.01017 44.4062 9.36236 44.0208 10.5643 43.1455C12.3367 41.8543 13.2338 40.0666 13.334 38.0351H13.3383ZM29.7669 5.5828C28.2536 3.92579 26.4965 3.26168 24.4236 3.78861C22.2897 4.33079 20.9506 5.75699 20.5565 7.93441C20.1972 9.91804 20.9354 11.5315 22.49 12.8772C24.3713 9.89627 26.7512 7.49022 29.7691 5.5828H29.7669ZM60.1202 12.8249C61.7445 11.6382 62.4762 9.51522 61.9797 7.51199C61.4767 5.48264 59.7762 3.90837 57.6445 3.6253C55.7283 3.37272 54.1671 4.08257 52.889 5.58934C55.8895 7.48805 58.2737 9.89409 60.1202 12.8227V12.8249Z" fill="#61992E"/>
<path id="Vector_2" d="M30.8992 22.4337C30.9188 21.3645 31.8377 20.4892 32.9068 20.5219C33.9454 20.5524 34.7968 21.4277 34.799 22.4663C34.799 23.5376 33.9041 24.4304 32.8328 24.4216C31.7659 24.4129 30.8796 23.5028 30.8992 22.4337Z" fill="#61992E"/>
<path id="Vector_3" d="M51.7503 22.4904C51.7394 23.5595 50.8292 24.4435 49.7623 24.4217C48.6932 24.4 47.8178 23.4789 47.8505 22.412C47.8832 21.3755 48.7606 20.522 49.7993 20.522C50.8706 20.522 51.7611 21.4191 51.7503 22.4904Z" fill="#61992E"/>
<path id="Vector_4" d="M40.0313 37.349C40.5756 35.6985 39.3955 35.0366 38.3198 34.2679C37.1789 33.4536 36.702 32.3017 36.996 30.9234C37.2834 29.5843 38.1369 28.6393 39.4913 28.4542C40.6845 28.2909 41.9343 28.2931 43.1297 28.4499C44.4471 28.6241 45.281 29.5277 45.6098 30.8342C45.9321 32.1145 45.5206 33.1771 44.5821 34.0654C44.5233 34.1221 44.4645 34.1852 44.3927 34.2179C42.777 34.9625 42.3502 36.2646 42.6202 37.9195C42.6725 38.2352 42.6485 38.5727 42.6115 38.8928C42.5288 39.5961 41.9518 40.11 41.2833 40.0621C40.5691 40.0098 40.1227 39.6004 40.0422 38.8928C39.9856 38.3833 40.0313 37.8629 40.0313 37.349ZM41.329 33.238C41.8516 32.857 42.3415 32.5521 42.7596 32.1711C42.9447 32.0013 43.1167 31.6355 43.0557 31.4308C42.9947 31.2239 42.6442 30.9931 42.4047 30.9735C41.6774 30.9147 40.9371 30.9125 40.212 30.9757C39.979 30.9953 39.6698 31.2479 39.5827 31.4678C39.5174 31.6376 39.6829 31.9925 39.8527 32.1428C40.2969 32.5325 40.8021 32.857 41.329 33.2402V33.238Z" fill="#61992E"/>
</g>
</svg>
