<svg width="81" height="81" viewBox="0 0 81 81" fill="none" xmlns="http://www.w3.org/2000/svg">
<path id="Vector" d="M42.4172 12.9885C44.7504 12.9495 46.7819 13.6787 48.427 15.3629C50.8948 17.8914 51.3722 21.6853 49.5773 24.7217C49.3169 25.1622 49.2453 25.4639 49.5448 25.9392C50.4694 27.4064 50.7884 29.0321 50.617 30.7619C50.5931 31.0071 50.7038 31.2632 50.7407 31.4586C51.8085 30.8964 52.757 30.3972 53.8356 29.8286C53.6663 28.0033 53.4905 26.0152 53.2974 24.0293C53.0608 21.5854 54.2068 19.5149 56.3099 18.612C58.4195 17.7048 60.922 18.2409 62.4043 19.9273C63.496 21.1709 63.7804 22.6337 63.6024 24.2463C63.3962 26.1281 63.2508 28.0141 63.0858 29.8069C64.1428 30.3213 65.1238 30.7988 66.2134 31.3283C66.2546 31.3001 66.4282 31.1807 66.5975 31.0549C68.6507 29.5182 71.2834 29.4857 73.3062 31.0549C77.953 34.6599 80.386 39.413 80.5553 45.3035C80.6486 48.5395 80.6204 51.7777 79.2401 54.7902C78.4696 56.4745 77.4864 58.0589 76.5618 59.7561C76.5944 59.7778 76.7419 59.8776 76.896 59.971C79.7197 61.6747 81.0415 64.672 80.386 67.8864C79.7805 70.8598 77.2997 73.1322 74.1592 73.6162C64.3989 75.1181 54.6409 76.6309 44.8806 78.1285C39.6673 78.9293 34.4627 79.8127 29.2277 80.4638C23.5348 81.1713 18.9379 79.0769 15.55 74.4388C15.1745 73.9266 14.8554 73.8354 14.2911 73.97C12.4246 74.4171 10.5233 74.7361 8.68066 75.2614C6.26502 75.9494 3.41964 74.263 3.89495 70.7947C3.91666 70.6341 3.95789 70.4778 4.0013 70.2564C2.66434 70.1718 1.43807 69.7507 0.743544 68.5831C0.322488 67.8734 0.0208074 66.9813 0.00127392 66.1631C-0.0486451 64.1229 1.37079 62.8272 3.85589 62.3432C3.90147 61.5206 3.83635 60.698 4.01215 59.9319C4.45274 58.0306 6.32362 56.889 8.23574 57.2927C10.2737 57.7224 12.303 58.1826 14.3324 58.6557C14.8598 58.7794 15.1615 58.6861 15.5326 58.2173C16.5006 56.9954 17.5858 55.8646 18.7187 54.5906C17.8679 52.2031 16.9607 49.6312 16.0188 47.0723C15.9493 46.8835 15.6324 46.7186 15.4024 46.6665C11.1115 45.718 8.58734 42.0761 9.17552 37.6941C9.21025 37.4423 9.12777 37.0799 8.95848 36.9106C6.48641 34.4298 5.86567 31.5519 7.03117 28.2659C7.04854 28.2182 7.03117 28.1617 7.03117 28.0554C5.15378 26.7162 3.78426 24.943 3.06152 22.7054C1.44458 17.6939 3.82116 12.2831 8.62423 10.0715C9.10172 9.85231 9.36868 9.57884 9.55967 9.07748C10.6948 6.11273 12.8825 4.43936 16.0014 3.91629C16.34 3.85986 16.7393 3.61678 16.939 3.33897C20.4485 -1.59867 27.8886 -0.947552 30.4171 4.54788C30.6429 5.03838 30.8751 5.20333 31.422 5.21636C33.5533 5.26193 35.3482 6.11273 36.8241 7.64936C37.026 7.85989 37.2452 8.10298 37.5056 8.1963C39.8757 9.03407 41.4818 10.6445 42.4194 12.9864L42.4172 12.9885ZM27.3873 78.1002C28.6461 77.9309 29.9071 77.7812 31.1616 77.588C38.7297 76.4334 46.2979 75.2679 53.8639 74.1045C60.5747 73.0736 67.2899 72.0535 73.9964 70.9965C76.3404 70.6276 77.9791 68.6026 77.9552 66.2434C77.9313 63.9319 76.2666 61.9699 73.953 61.6074C67.2703 60.5635 60.5855 59.5434 53.9007 58.5125C46.2805 57.3383 38.6581 56.1728 31.04 54.9899C28.9738 54.6687 26.9163 54.3909 24.8327 54.8597C18.9727 56.1771 14.9401 61.6552 15.6042 67.4219C16.3118 73.5663 21.2472 78.0047 27.3873 78.0937V78.1002ZM36.0884 39.6995C36.0081 39.3653 35.9755 39.1591 35.9082 38.9659C35.3374 37.3056 34.6798 35.6669 34.2045 33.9784C33.7313 32.305 32.5788 31.4325 31.0726 30.8704C30.5669 30.6815 30.0568 30.458 29.5294 30.3864C27.5565 30.1172 25.575 29.9067 23.4762 29.6593C23.4111 29.0277 23.3265 28.2073 23.2353 27.3283C26.1197 27.1178 28.8913 27.3587 31.7541 28.1096C30.3607 25.477 28.9673 22.8421 27.5457 20.1552C28.225 19.7211 28.9196 19.2761 29.7747 18.7292C31.5826 22.2322 33.3472 25.6462 35.1312 29.1015C36.4161 26.0022 38.2001 23.3131 40.7482 21.0949C41.3233 21.8133 41.8399 22.4579 42.3586 23.1047C39.9907 25.3294 38.2913 27.8731 37.2929 30.8574C37.0368 31.6213 36.6049 32.4808 36.7503 33.1949C37.0433 34.6382 37.6792 36.012 38.2197 37.5487C39.3266 35.3783 40.6874 33.6116 42.3586 32.0728C43.9517 30.6034 45.6902 29.5703 48.019 30.0022C48.121 27.9664 46.9989 26.6077 45.7075 25.3771C48.108 22.5968 48.6376 20.9104 47.6088 18.7531C46.1199 15.6321 43.5111 15.1264 40.4205 16.0119C40.2794 15.3217 40.1926 14.7313 40.0341 14.1605C39.4568 12.0987 37.6163 10.5881 35.5045 10.4123C33.269 10.2256 31.2614 11.4345 30.2847 13.5376C30.0851 13.9674 30.0503 14.4796 29.2625 14.3884C26.3173 14.0433 24.0058 15.7753 23.4741 18.6945C23.3503 19.3738 23.0855 19.6581 22.4171 19.8578C19.3351 20.7737 17.1929 23.4303 16.8804 26.5925C16.5722 29.7114 18.2282 32.7174 21.0931 34.2323C21.5164 34.4559 21.9439 34.6707 22.4236 34.916C22.1241 35.3696 21.868 35.7472 21.6249 36.1292C20.0709 38.5839 20.646 41.5617 22.9944 43.2481C23.686 43.7444 23.9023 44.3868 23.6433 45.1754C22.5625 48.4657 24.8349 51.8016 28.2815 52.0273C29.2777 52.0924 30.2695 52.2617 31.2592 52.4072C33.1757 52.6893 35.0878 52.991 37.026 53.2883C37.026 53.1256 37.0433 53.0431 37.0238 52.9715C36.1687 49.8656 36.262 46.7055 36.4703 43.5368C36.4877 43.2828 36.2924 42.877 36.0797 42.7685C34.9294 42.1803 33.7856 41.5096 32.5571 41.1624C30.8555 40.6827 29.0802 40.4678 27.3113 40.1336V37.7006C30.3585 37.8113 33.243 38.3843 36.0862 39.6952L36.0884 39.6995ZM28.7134 8.19847C28.6417 7.80997 28.5831 7.49744 28.5267 7.18273C28.0102 4.37642 25.9331 2.52941 23.2722 2.61189C20.9933 2.68134 19.4132 3.84901 18.5039 5.93259C18.3454 6.29721 18.2781 6.65099 17.6856 6.60107C14.4192 6.32326 12.2618 7.97275 11.7192 11.1762C11.6237 11.7362 11.3372 11.8599 10.9097 11.9923C7.64322 12.9972 5.47066 15.5995 5.18199 18.8377C4.89333 22.0586 6.59274 24.993 9.65299 26.5665C10.0024 26.7466 10.3475 26.9355 10.6948 27.1199C8.12939 31.4824 8.39418 32.9192 12.3356 36.2117C12.2857 36.3745 12.2488 36.559 12.1728 36.7261C10.4018 40.6914 13.5228 44.47 17.219 44.1966C17.7203 44.1597 17.8571 44.4136 17.9938 44.8021C18.9097 47.4022 19.8386 49.998 20.7676 52.5938C20.8631 52.8608 20.9824 53.1212 21.091 53.3925C21.8441 53.0952 22.506 52.8347 23.1919 52.5634C23.1116 52.4375 23.079 52.3638 23.0269 52.3073C21.206 50.367 20.4572 48.1011 20.8739 45.4511C20.9152 45.195 20.7545 44.8238 20.5636 44.6263C18.2781 42.2693 17.6053 39.5411 18.6232 36.4179C18.7556 36.0142 18.6775 35.8145 18.3519 35.5519C12.0643 30.4906 13.1994 21.1427 20.4898 17.7677C20.7676 17.6397 21.0562 17.351 21.1626 17.0689C22.3281 13.963 24.5527 12.2115 27.8127 11.7145C28.084 11.6733 28.3574 11.4562 28.5723 11.2566C29.358 10.523 30.0807 9.71558 30.9055 9.0319C31.3786 8.63906 32.0058 8.43288 32.6331 8.10732C31.2853 7.51046 30.0568 7.96841 28.7069 8.19847H28.7134ZM57.471 41.7939C57.4341 42.0457 57.3365 42.4407 57.3278 42.8401C57.2627 45.5726 57.1477 48.3073 57.1911 51.0398C57.2149 52.6285 57.5014 54.2107 57.6707 55.7973C57.7206 56.2683 57.8921 56.5244 58.4564 56.6047C61.4819 57.0323 64.5009 57.5163 67.5199 58.0046C68.0517 58.0914 68.3946 58.0089 68.5726 57.449C68.9806 56.1641 69.6665 54.914 69.7945 53.6052C70.0658 50.8401 70.1939 48.0425 70.1223 45.2644C69.9942 40.3702 67.954 36.3354 64.1428 33.2339C63.8021 32.9561 63.3723 32.7868 62.9209 32.5286C62.6691 33.7158 62.4434 34.5948 63.674 35.3978C65.3517 36.4917 65.4255 38.4754 63.9822 39.769C63.3376 40.3463 62.5172 40.8477 61.6903 41.0777C60.3772 41.4423 58.9947 41.553 57.4754 41.7961L57.471 41.7939ZM54.0657 32.6371C53.8356 32.7217 53.6772 32.7586 53.5405 32.8324C53.3516 32.9344 53.165 33.0494 52.9957 33.1818C49.8834 35.5997 47.7325 38.7077 47.1443 42.5992C46.7276 45.3577 46.8188 48.2009 46.7971 51.0094C46.7884 52.1033 47.0901 53.1972 47.2442 54.2932C47.3049 54.7165 47.4851 54.9378 47.9626 54.9856C48.7938 55.0659 49.6164 55.246 50.4455 55.3719C51.9539 55.602 53.4645 55.8234 55.0055 56.0534C54.3305 50.9856 54.439 46.0002 54.8557 41.0582C54.2979 40.7174 53.7315 40.4461 53.2496 40.0641C51.5198 38.6946 51.535 36.6979 53.2605 35.3197C53.4493 35.1677 53.6989 35.0788 53.853 34.9008C54.0223 34.7055 54.2089 34.4428 54.2155 34.2041C54.2285 33.7027 54.1286 33.2014 54.0679 32.6414L54.0657 32.6371ZM68.0235 33.3403C70.3219 35.9947 71.9953 38.9638 72.4033 42.3995C73.0479 47.8168 73.3453 53.2579 70.9795 58.4929C71.6003 58.6015 72.1885 58.6796 72.7636 58.812C73.3344 58.9422 73.7121 58.7599 74.0919 58.315C75.4983 56.6655 76.5726 54.838 77.2281 52.7718C78.2352 49.5987 78.1918 46.3387 77.7425 43.1157C77.1695 38.9941 75.0772 35.6669 71.7544 33.1493C70.5173 32.2117 69.1499 32.292 68.0235 33.3424V33.3403ZM48.9588 33.3967C47.8888 32.3202 46.4107 32.1357 45.2517 33.1102C44.0602 34.1108 42.9034 35.2068 41.9506 36.4309C38.8751 40.3767 38.6624 45.0083 39.0683 49.7246C39.1703 50.8966 39.5523 52.0447 39.8431 53.195C39.8996 53.4186 40.1123 53.7376 40.2967 53.7723C41.6923 54.0306 43.1009 54.2281 44.5637 54.4517C44.529 54.1912 44.5116 54.035 44.4878 53.8787C43.9538 50.3236 43.9647 46.7468 44.3641 43.1982C44.7829 39.4738 46.4368 36.2356 48.9566 33.3967H48.9588ZM62.4087 37.5573C61.9203 37.2969 61.4949 37.0169 61.0305 36.8346C59.8411 36.3636 59.8563 36.3832 59.9757 35.1439C60.3403 31.3218 60.7071 27.4976 61.0348 23.6734C61.2193 21.5268 59.2594 20.153 57.3104 21.019C56.2035 21.5116 55.7629 22.5339 55.9127 24.0879C56.2838 27.936 56.6159 31.7906 56.9979 35.6387C57.0608 36.279 56.8568 36.5373 56.2643 36.7239C55.6522 36.9171 55.0923 37.2665 54.4911 37.5552C55.6892 39.4434 61.3256 39.3978 62.4087 37.5595V37.5573ZM12.965 65.0171C9.85918 65.0171 6.82933 64.9954 3.8038 65.0453C3.44569 65.0518 2.97688 65.3709 2.76418 65.6834C2.16515 66.5646 2.88789 67.5999 4.07943 67.6064C6.86838 67.6194 9.65733 67.6129 12.4463 67.6064C12.6221 67.6064 12.7957 67.5543 12.965 67.5283V65.0171ZM13.8028 61.1864C11.8842 60.7588 9.95252 60.2965 8.00568 59.9254C7.60198 59.8494 6.92048 59.984 6.74468 60.2618C6.49942 60.6481 6.44516 61.3275 6.61662 61.7572C6.74467 62.0762 7.35672 62.3627 7.76692 62.3801C9.35565 62.4517 10.9509 62.3519 12.5396 62.4322C13.4599 62.4778 13.8071 62.1218 13.805 61.1864H13.8028ZM14.1023 71.3612C13.6986 70.8707 13.4403 70.2673 13.156 70.2564C11.2721 70.1718 9.38387 70.1892 7.49563 70.2261C6.7056 70.2413 6.33447 70.8793 6.46686 71.8191C6.56236 72.4941 7.11148 72.9173 7.80383 72.7676C9.80059 72.34 11.7908 71.8799 14.1023 71.359V71.3612Z" fill="#4E888C"/>
</svg>
